/* XPM */
static char * default_ett_xpm[] = {
"32 32 3 1",
" 	s LightBlue	c LightBlue",
".	s Red	c Red",
"X	s black	c black",
"                                ",
"                                ",
"       ....   .....  .....      ",
"       .        .      .        ",
"       .        .      .        ",
"       ...      .      .        ",
"       .        .      .        ",
"       .        .      .        ",
"       ....     .      .        ",
"                                ",
"                                ",
"                                ",
"                                ",
"            XXXX                ",
"          XX   XX               ",
"        XX      XX              ",
"       X          X             ",
"      X            X            ",
"       X          X             ",
"        XX      XX              ",
"         XX    XX               ",
"          XXXXX                 ",
"                                ",
"                                ",
"                                ",
"                                ",
"                                ",
"                                ",
"                                ",
"                                ",
"                                ",
"                                "};
